<?xml version="1.0" encoding="utf-8"?>
<!-- Generator: Adobe Illustrator 26.5.0, SVG Export Plug-In . SVG Version: 6.00 Build 0)  -->
<svg version="1.1" id="Layer_1" xmlns="http://www.w3.org/2000/svg" xmlns:xlink="http://www.w3.org/1999/xlink" x="0px" y="0px"
	 viewBox="0 0 1000 1000" style="enable-background:new 0 0 1000 1000;" xml:space="preserve">
<g>
	<g>
		<path d="M330.27,449.4c14.65-0.08,26.11-6.84,38.26-13.97c2.33-1.37,4.73-2.63,7.17-3.78c3.9-1.85,1.52-0.38-0.99,0.32
			c1.14-0.31,2.26-0.9,3.36-1.32c5.36-2.02,10.84-3.74,16.32-5.41c21.97-6.72,43.96-13.24,66.78-16.34
			c-2.51,0.34-5.02,0.67-7.53,1.01c27.26-3.49,54.75-2.72,81.95,0.88c-2.51-0.34-5.02-0.67-7.53-1.01
			c31.79,4.36,62.9,12.42,93.42,22.21c14.12,4.53,31.55-5.3,34.85-19.79c3.53-15.5-4.67-30-19.79-34.85
			c-40.65-13.04-82.49-22.83-125.19-25.69c-22.21-1.49-44.15-0.34-66.18,2.72c-20.34,2.83-40.02,8.38-59.63,14.32
			c-12.26,3.71-24.27,7.65-35.99,12.89c-5.11,2.28-9.87,5.04-14.62,7.98c-2.15,1.33-4.32,2.57-6.54,3.79
			c-3.33,1.83,0.36-1.53,2.26-0.9c-0.84-0.28-3.8,0.99-4.68,1.14c2.51-0.34,5.02-0.67,7.53-1.01c-1.08,0.14-2.16,0.19-3.25,0.15
			c-14.82,0.08-29.02,12.98-28.33,28.33C302.62,436.36,314.39,449.49,330.27,449.4L330.27,449.4z"/>
	</g>
</g>
<g>
	<g>
		<path d="M348.36,542.97c44-14.64,88.33-29.22,134.43-35.57c-2.51,0.34-5.02,0.67-7.53,1.01c27.24-3.61,54.47-3.87,81.72-0.32
			c-2.51-0.34-5.02-0.67-7.53-1.01c20.45,2.78,40.59,7.24,60.56,12.38c9.66,2.49,19.34,4.97,28.88,7.87c2.25,0.68,4.5,1.4,6.72,2.17
			c1.11,0.39,2.21,0.79,3.31,1.2c2.82,1.12,2.19,0.83-1.89-0.87c1.18,1.31,4.68,2.2,6.29,3.08c2.06,1.12,4.03,2.36,5.98,3.66
			c12.35,8.26,31.91,2.81,38.76-10.16c7.54-14.27,3.02-29.95-10.16-38.76c-19.53-13.06-44.12-18.1-66.58-23.79
			c-24.33-6.16-48.93-10.98-73.92-13.57c-47.08-4.88-94.72,2.81-140.16,15.05c-24.93,6.72-49.46,14.84-73.95,22.99
			c-14.04,4.67-24.67,19.76-19.79,34.85C318.03,537.16,333.3,547.98,348.36,542.97L348.36,542.97z"/>
	</g>
</g>
<g>
	<g>
		<path d="M381.47,647.28C424.03,632,468.16,620.3,513,614.17c-2.51,0.34-5.02,0.67-7.53,1.01c31.9-4.24,64.2-5.35,96.17-1.2
			c-2.51-0.34-5.02-0.67-7.53-1.01c17.35,2.37,34.4,6.27,50.96,12c14.02,4.85,31.6-5.53,34.85-19.79
			c3.59-15.77-4.77-29.66-19.79-34.85c-74.2-25.64-155.88-16.33-230.41,2.82c-21.4,5.5-42.51,12.03-63.31,19.49
			c-7.04,2.53-13.06,6.39-16.93,13.02c-3.55,6.07-5.06,15.02-2.86,21.83C351.05,641.19,366.53,652.64,381.47,647.28L381.47,647.28z"
			/>
	</g>
</g>
</svg>
