<?xml version="1.0" encoding="utf-8"?>
<!-- Generator: Adobe Illustrator 26.5.0, SVG Export Plug-In . SVG Version: 6.00 Build 0)  -->
<svg version="1.1" id="Layer_1" xmlns="http://www.w3.org/2000/svg" xmlns:xlink="http://www.w3.org/1999/xlink" x="0px" y="0px"
	 viewBox="0 0 1000 1000" style="enable-background:new 0 0 1000 1000;" xml:space="preserve">
<style type="text/css">
	.st0{fill:#FFFFFF;}
</style>
<g>
	<g>
		<path class="st0" d="M330.3,443.6c12.1-0.1,22.4-5.2,32.5-11.4c3.8-2.4,8.1-5.4,12.5-6.6c-5.2,1.5,1.9-0.7,3-1.1
			c2.5-0.9,5.1-1.8,7.7-2.6c19.3-6.2,39-12.2,58.9-16.1c2.1-0.4,4.3-0.8,6.5-1.2c1.2-0.2,2.5-0.4,3.7-0.6c0.7-0.1,4.7-0.6,1.6-0.2
			s0.9-0.1,1.6-0.2c1.2-0.1,2.5-0.3,3.7-0.4c2.8-0.3,5.6-0.5,8.4-0.7c9.9-0.7,19.9-0.8,29.8-0.5c10,0.3,19.9,1.1,29.8,2.3
			c1.2,0.1,2.5,0.3,3.7,0.5c-4.8-0.8-1.4-0.2-0.4,0c2.5,0.4,5,0.7,7.4,1.1c5.3,0.9,10.5,1.8,15.8,2.9c22.5,4.5,44.7,10.7,66.5,17.7
			c11.2,3.6,25.1-4.2,27.7-15.7c2.8-12.3-3.7-23.8-15.7-27.7c-40.4-13-82.1-22.8-124.6-25.5c-21.7-1.4-43.1-0.3-64.6,2.7
			c-20.6,2.9-40.6,8.7-60.5,14.8c-11.7,3.6-23.3,7.3-34.4,12.5c-5,2.3-9.7,5.2-14.4,8.1c-0.7,0.4-6.6,3.2-6.6,3.6c0-1,5.1-1,0.8-0.5
			c-4.7,0.5,4.8,0-0.4,0c-11.8,0.1-23,10.3-22.5,22.5C308.3,433.2,317.7,443.6,330.3,443.6L330.3,443.6z"/>
	</g>
</g>
<g>
	<g>
		<path class="st0" d="M346.8,537.3c41.9-13.9,84.1-27.9,127.9-34.6c1.2-0.2,2.5-0.4,3.8-0.5c3.4-0.5-3.8,0.4-0.4,0
			c2.8-0.3,5.6-0.7,8.5-1c5.6-0.6,11.3-1,17-1.3c10.8-0.5,21.6-0.5,32.4,0.2c5.5,0.4,10.9,0.9,16.3,1.5c0.7,0.1,4.8,0.6,1.8,0.2
			c-3-0.4,1.1,0.2,1.8,0.3c3.2,0.5,6.4,1,9.5,1.5c11.1,1.9,22.2,4.3,33.1,6.9c11.8,2.8,23.5,5.9,35.2,9.2c5.7,1.6,11.3,3.4,16.8,5.3
			c1,0.4,4.1,1.2-0.5-0.3c1.4,0.4,2.7,1.2,4,1.9c2.9,1.5,5.6,3.1,8.3,4.9c9.8,6.6,25.3,2.2,30.8-8.1c6-11.3,2.4-23.8-8.1-30.8
			c-19.1-12.8-43.2-17.6-65.2-23.2c-23.8-6-47.9-10.8-72.4-13.4c-46.6-4.8-93.6,2.7-138.6,14.8c-24.9,6.7-49.5,14.8-74,23
			c-11.1,3.7-19.6,15.7-15.7,27.7C322.7,532.7,334.9,541.3,346.8,537.3L346.8,537.3z"/>
	</g>
</g>
<g>
	<g>
		<path class="st0" d="M379.9,641.7c35.1-12.6,71.3-22.7,108-29.4c4.5-0.8,9-1.6,13.5-2.3c2.1-0.3,4.2-0.6,6.3-1
			c0.5-0.1,3.5-0.4,0.6-0.1c-3.3,0.3,1.8-0.2,2.5-0.3c9.1-1.1,18.2-2,27.3-2.5c17.8-1,35.8-0.9,53.5,0.9c2.4,0.2,4.8,0.5,7.2,0.8
			c2.7,0.3-1.3-0.2-1.5-0.2c1.5,0,3,0.4,4.5,0.7c5,0.8,10.1,1.7,15.1,2.8c10,2.2,19.9,5,29.6,8.3c11.1,3.8,25.1-4.4,27.7-15.7
			c2.8-12.5-3.8-23.6-15.7-27.7c-73.3-25.3-153.7-16.1-227.3,2.8c-21.4,5.5-42.5,12-63.3,19.5c-11,4-19.6,15.5-15.7,27.7
			C355.8,636.8,368.1,645.9,379.9,641.7L379.9,641.7z"/>
	</g>
</g>
</svg>
