<?xml version="1.0" encoding="utf-8"?>
<!-- Generator: Adobe Illustrator 26.5.0, SVG Export Plug-In . SVG Version: 6.00 Build 0)  -->
<svg version="1.1" id="Layer_1" xmlns="http://www.w3.org/2000/svg" xmlns:xlink="http://www.w3.org/1999/xlink" x="0px" y="0px"
	 viewBox="0 0 1000 1000" style="enable-background:new 0 0 1000 1000;" xml:space="preserve">
<style type="text/css">
	.st0{fill:#FFFFFF;}
</style>
<g>
	<g>
		<path class="st0" d="M350,468.7c9.5,7.5,20.7,9.9,32.5,11.4c4.4,0.5,9.7,0.9,13.9,2.6c-5-2.1,1.9,0.7,3,1c2.6,0.9,5.1,1.8,7.7,2.8
			c19,7.2,38.1,14.8,56,24.2c1.9,1,3.9,2.1,5.8,3.1c1.1,0.6,2.2,1.2,3.2,1.9c0.6,0.4,4.1,2.5,1.4,0.8s0.8,0.5,1.4,0.9
			c1.1,0.7,2.1,1.3,3.1,2c2.4,1.5,4.7,3.1,7,4.7c8.2,5.7,16,11.8,23.6,18.2c7.6,6.5,14.9,13.3,21.8,20.5c0.9,0.9,1.8,1.8,2.6,2.7
			c-3.3-3.6-1-1-0.3-0.3c1.7,1.8,3.4,3.7,5.1,5.5c3.6,4,7.1,8,10.5,12.1c14.8,17.6,28.2,36.2,40.9,55.4c6.5,9.8,22.2,12.4,31.4,5
			c9.9-7.9,12-20.9,5-31.4c-23.5-35.4-49.8-69.1-81.3-97.8c-16-14.6-33.5-27.2-52.1-38.3c-17.9-10.6-37.1-18.6-56.5-26.3
			c-11.4-4.5-22.8-8.8-34.7-11.8c-5.4-1.3-10.8-2-16.3-2.7c-0.8-0.1-7.1-1.6-7.4-1.3c0.6-0.8,4.6,2.5,1,0.1c-3.9-2.6,3.8,3-0.3-0.3
			c-9.2-7.3-24.4-6.4-31.6,3.5C339.4,446.9,340.2,460.8,350,468.7L350,468.7z"/>
	</g>
</g>
<g>
	<g>
		<path class="st0" d="M382.5,653.4c26.3-35.5,52.8-71.1,84.8-101.7c0.9-0.9,1.8-1.7,2.8-2.6c2.5-2.4-2.9,2.5-0.3,0.2
			c2.1-1.9,4.2-3.8,6.4-5.7c4.3-3.7,8.7-7.3,13.2-10.8c8.5-6.6,17.4-12.8,26.6-18.4c4.7-2.8,9.4-5.5,14.2-8.1
			c0.6-0.3,4.2-2.3,1.6-0.9s1-0.5,1.6-0.8c2.9-1.4,5.8-2.9,8.7-4.2c10.2-4.8,20.6-9.2,31.1-13.4c11.3-4.5,22.7-8.7,34.1-12.7
			c5.6-2,11.2-3.7,16.8-5.3c1.1-0.3,4-1.4-0.6,0.1c1.4-0.4,2.9-0.5,4.3-0.8c3.2-0.5,6.4-0.7,9.6-0.8c11.8-0.3,22-12.7,20.6-24.3
			c-1.6-12.7-11.7-20.9-24.3-20.6c-23,0.5-45.5,10.4-66.7,18.4c-23,8.7-45.4,18.6-66.9,30.6c-40.9,22.8-75.1,56-105,91.7
			c-16.6,19.8-32,40.5-47.4,61.3c-7,9.4-7,24.1,3,31.7C360.1,663.5,375,663.5,382.5,653.4L382.5,653.4z"/>
	</g>
</g>
</svg>
